<?xml version="1.0" encoding="utf-8"?>
<!-- Generator: Adobe Illustrator 24.0.3, SVG Export Plug-In . SVG Version: 6.00 Build 0)  -->
<svg version="1.1" id="Layer_1" xmlns="http://www.w3.org/2000/svg" xmlns:xlink="http://www.w3.org/1999/xlink" x="0px" y="0px"
	 viewBox="0 0 1000 1000" style="enable-background:new 0 0 1000 1000;" xml:space="preserve">
<style type="text/css">
	.st0{fill:#F0F2F3;}
	.st1{fill:#B1C7CC;}
</style>
<g>
	<g transform="translate(0.000000,472.000000) scale(0.100000,-0.100000)">
		<path class="st0" d="M5070.4,4584.4c-139.7-52.1-277.3-148-356.5-246c-81.3-104.3-164.7-271.1-181.4-367
			c-8.3-41.7-20.8-77.2-29.2-77.2c-6.3,0-64.6,20.9-127.2,43.8c-152.2,60.5-400.3,64.6-569.2,10.4
			c-231.4-75.1-444.1-273.1-529.6-492.1c-35.4-87.6-37.5-252.3-47.9-2124.7L3219-699.2l-223.1,291.9
			c-313,408.7-429.7,504.6-715.4,579.7c-296.1,77.1-588-2.1-802.8-218.9c-225.2-223.1-306.5-565.1-210.6-873.6
			c60.5-193.9,896.6-1739,1249-2306.1c656.8-1059.2,1155.1-1524.2,1884.9-1764c402.4-131.4,815.3-185.6,1392.8-187.7
			c952.9-2.1,1607.6,231.4,2135.1,759c341.9,342,550.4,706.8,704.7,1234.4c135.5,465,129.3,346.1,135.5,3000.4
			c8.3,2623,8.3,2631.4-106.4,2871.1c-75,160.5-177.2,271.1-319,346.1c-225.2,120.9-500.4,139.7-734,50
			c-102.1-37.5-106.3-37.5-106.3-2.1c0,135.5-50,475.4-85.5,577.6C7299,4008.9,7019.6,4207,6648.5,4207
			c-135.5,0-364.9-52.1-433.7-95.9c-27.1-18.8-52.1-29.2-54.2-25c-4.2,4.2-33.4,56.3-64.6,116.8
			c-77.1,141.8-229.4,283.6-381.6,354.5C5554.1,4630.3,5237.2,4644.9,5070.4,4584.4z"/>
	</g>
</g>
<path class="st1" d="M552.6,55.5c9.6,4.4,18.3,13.1,22.3,22.1c2.1,5,2.9,44.2,3.8,187.2l1,181.2l5.8,5c7.9,6.9,20,6.9,27.9,0l5.8-5
	l1-161.4c0.8-142.8,1.5-162,4.4-168.5c7.1-15,18.1-21.1,39-21.1c19,0,26.9,4.6,34.8,20l6.2,12.5l1,167.9
	c0.8,134.3,1.7,168.9,3.8,172.6c7.3,12.9,28.6,11.9,37.1-1.7c1-1.9,2.3-51.9,2.9-117.8l1-114.7l5.8-12.1
	c8.1-16.3,16.9-20.8,37.7-19.8c25.2,1.2,34.8,12.7,39,45.9c1.5,11.7,1.9,95.7,1.2,246.9c-0.8,222.3-0.8,229.8-5.2,252.1
	c-7.9,41.9-22.1,77.8-42.5,108.2c-11.3,16.5-36.7,41.9-53.4,53.2c-48.4,32.5-116.6,45.2-200.6,37.5c-76.7-6.9-126.6-27.7-168.1-69.8
	c-33.8-34.2-62.1-75.3-108.8-157.6c-33.1-58-74.2-133.7-84-154.7c-16.7-35.6-0.4-68,34.2-68c12.9,0,22.9,3.5,32.5,11.7
	c3.8,3.1,25.2,30,48,60c22.7,30,43.8,55.7,46.7,57.3c6.9,3.8,19.6,1.7,25.2-4c4.4-4.2,4.4-5.4,5.4-239.4c1-233.3,1-235,5.4-243.3
	c10.2-19.6,37.1-27.7,56.9-17.3c5.2,2.7,12.3,8.3,15.6,12.7l6.5,8.1l1,151.2l1,151.2l6.9,6c9.6,8.5,20.2,8.3,28.8-0.4l6.1-6.2
	l1-181.8l1-181.8l4.8-7.7C510.5,53.6,533.4,46.5,552.6,55.5z"/>
</svg>
