<?xml version="1.0" encoding="utf-8"?>
<!-- Generator: Adobe Illustrator 24.0.3, SVG Export Plug-In . SVG Version: 6.00 Build 0)  -->
<svg version="1.1" id="Layer_1" xmlns="http://www.w3.org/2000/svg" xmlns:xlink="http://www.w3.org/1999/xlink" x="0px" y="0px"
	 viewBox="0 0 1000 1000" style="enable-background:new 0 0 1000 1000;" xml:space="preserve">
<style type="text/css">
	.st0{fill:#F0F2F3;}
</style>
<g>
	<g>
		<path class="st0" d="M866.3,203.3c-7.5-16-17.7-27.1-31.9-34.6c-22.5-12.1-50-14-73.4-5c-10.2,3.8-10.6,3.8-10.6,0.2
			c0-13.5-5-47.5-8.5-57.8c-11.9-35-39.8-54.8-76.9-54.8c-13.6,0-36.5,5.2-43.4,9.6c-2.7,1.9-5.2,2.9-5.4,2.5
			c-0.4-0.4-3.3-5.6-6.5-11.7c-7.7-14.2-22.9-28.4-38.2-35.5c-16-7.3-47.7-8.8-64.4-2.7c-14,5.2-27.7,14.8-35.6,24.6
			c-8.1,10.4-16.5,27.1-18.1,36.7c-0.8,4.2-2.1,7.7-2.9,7.7c-0.6,0-6.5-2.1-12.7-4.4c-15.2-6-40-6.5-56.9-1
			c-23.1,7.5-44.4,27.3-53,49.2c-3.5,8.8-3.8,25.2-4.8,212.5l-1,203.1l-22.3-29.2c-31.3-40.9-43-50.5-71.5-58
			c-29.6-7.7-58.8,0.2-80.3,21.9c-22.5,22.3-30.7,56.5-21.1,87.4c6,19.4,89.7,173.9,124.9,230.6C317.3,900.5,367.1,947,440.1,971
			c40.2,13.1,81.5,18.6,139.3,18.8c95.3,0.2,160.8-23.1,213.5-75.9c34.2-34.2,55-70.7,70.5-123.4c13.5-46.5,12.9-34.6,13.5-300
			C877.7,228.1,877.7,227.3,866.3,203.3z M834.1,494.7c-0.8,222.3-0.8,229.8-5.2,252.1c-7.9,41.9-22.1,77.8-42.5,108.2
			c-11.3,16.5-36.7,41.9-53.4,53.2c-48.4,32.5-116.6,45.2-200.6,37.5c-76.7-6.9-126.6-27.7-168.1-69.8
			c-33.8-34.2-62.1-75.3-108.8-157.6c-33.1-58-74.2-133.7-84-154.7c-16.7-35.6-0.4-68,34.2-68c12.9,0,22.9,3.5,32.5,11.7
			c3.8,3.1,25.2,30,48,60c22.7,30,43.8,55.7,46.7,57.3c6.9,3.8,19.6,1.7,25.2-4c4.4-4.2,4.4-5.4,5.4-239.4c1-233.3,1-235,5.4-243.3
			c10.2-19.6,37.1-27.7,56.9-17.3c5.2,2.7,12.3,8.3,15.6,12.7l6.5,8.1l1,151.2l1,151.2l6.9,6c9.6,8.5,20.2,8.3,28.8-0.4l6.1-6.2
			l1-181.8l1-181.8l4.8-7.7c12-18.3,34.9-25.4,54.1-16.4c9.6,4.4,18.3,13.1,22.3,22.1c2.1,5,2.9,44.2,3.8,187.2l1,181.2l5.8,5
			c7.9,6.9,20,6.9,27.9,0l5.8-5l1-161.4c0.8-142.8,1.5-162,4.4-168.5c7.1-15,18.1-21.1,39-21.1c19,0,26.9,4.6,34.8,20l6.2,12.5
			l1,167.9c0.8,134.3,1.7,168.9,3.8,172.6c7.3,12.9,28.6,11.9,37.1-1.7c1-1.9,2.3-51.9,2.9-117.8l1-114.7l5.8-12.1
			c8.1-16.3,16.9-20.8,37.7-19.8c25.2,1.2,34.8,12.7,39,45.9C834.4,259.5,834.8,343.5,834.1,494.7z"/>
	</g>
</g>
</svg>
